HIERARCHY
ROOT Hips
{
  OFFSET 7.333 -26.027 -164.856
  CHANNELS 6 Xposition Yposition Zposition Zrotation Xrotation Yrotation
  JOINT LeftUpLeg
  {
    OFFSET 10.092 0.000 0.000
    CHANNELS 3 Zrotation Xrotation Yrotation
    JOINT LeftLeg
    {
      OFFSET 0.000 -38.160 -0.000
    CHANNELS 3 Zrotation Xrotation Yrotation
      JOINT LeftFoot
      {
        OFFSET -0.000 -24.040 0.000
    CHANNELS 3 Zrotation Xrotation Yrotation
        End Site
        {
          OFFSET -0.000 0.000 12.945
        }
      }
    }
  }
  JOINT RightUpLeg
  {
    OFFSET -10.092 -0.000 0.000
    CHANNELS 3 Zrotation Xrotation Yrotation
    JOINT RightLeg
    {
      OFFSET 0.000 -33.046 0.000
    CHANNELS 3 Zrotation Xrotation Yrotation
      JOINT RightFoot
      {
        OFFSET 0.000 -22.031 -0.000
    CHANNELS 3 Zrotation Xrotation Yrotation
        End Site
        {
          OFFSET 0.000 -0.000 11.863
        }
      }
    }
  }
  JOINT Spine
  {
    OFFSET -0.000 16.511 0.000
    CHANNELS 3 Zrotation Xrotation Yrotation
    JOINT LeftShoulder
    {
      OFFSET 0 16.511 0
    CHANNELS 3 Zrotation Xrotation Yrotation
      JOINT LeftArm
      {
        OFFSET 16.337 0.000 0.000
    CHANNELS 3 Zrotation Xrotation Yrotation
        JOINT LeftForeArm
        {
          OFFSET 0.000 -24.030 0.000
    CHANNELS 3 Zrotation Xrotation Yrotation
          JOINT LeftHand
          {
            OFFSET 0.000 -17.629 -0.000
    CHANNELS 3 Zrotation Xrotation Yrotation
            End Site
            {
              OFFSET 0.000 -11.753 -0.000
            }
          }
        }
      }
    }
    JOINT RightShoulder
    {
      OFFSET 0 16.511 0
    CHANNELS 3 Zrotation Xrotation Yrotation
      JOINT RightArm
      {
        OFFSET -16.337 0.000 0.000
    CHANNELS 3 Zrotation Xrotation Yrotation
        JOINT RightForeArm
        {
          OFFSET -0.000 -19.534 0.000
    CHANNELS 3 Zrotation Xrotation Yrotation
          JOINT RightHand
          {
            OFFSET 0.000 -19.514 -0.000
    CHANNELS 3 Zrotation Xrotation Yrotation
            End Site
            {
              OFFSET 0.000 -13.010 -0.000
            }
          }
        }
      }
    }
    JOINT Neck
    {
      OFFSET -0.000 16.511 0.000
    CHANNELS 3 Zrotation Xrotation Yrotation
      JOINT Head
      {
        OFFSET -0.000 12.493 -0.000
    CHANNELS 3 Zrotation Xrotation Yrotation
        End Site
        {
          OFFSET -0.000 8.328 -0.000
        }
      }
    }
  }
}
MOTION
Frames: 19
Frame Time: 0.0333333
0 0 0 -9.372477e-01 -2.394275e+00 -1.332590e+01 -2.620810e-01 1.619148e+01 7.307900e-02 5.081330e+00 -1.676230e+01 1.395910e+00 0 1.418081e-08 6.203058e-08 3.003180e-01 1.672450e+01 -8.642400e-02 5.754065e+00 -1.654050e+01 1.730350e+00 0 0 7.810841e-08 -5.974668e-08 2.941557e-07 2.000000e-05 0 0 0 3.440672e+00 -4.098097e+01 -8.416197e+01 1.103848e+02 -2.697220e+01 1.218251e+02 -9.265747e-08 4.982290e-08 NaN 0 0 0 1.226531e+01 -4.185782e+01 1.076090e+02 -9.949770e+01 -2.695555e+01 -1.281234e+02 NaN 6.784216e-09 NaN 1.213110e-01 -1.825081e+00 3.861000e-03 0 0 NaN 
0 0 0 -6.155125e-01 -2.084807e+00 -1.320077e+01 -8.067640e-01 1.579630e+01 2.196310e-01 5.650540e+00 -1.723340e+01 1.447250e+00 0 NaN 1.137935e-07 8.346500e-02 1.614560e+01 -2.320900e-02 5.661159e+00 -1.594380e+01 1.582300e+00 0 0 4.975914e-08 -8.239159e-08 6.005038e-08 -1.149649e-04 0 0 0 1.080977e+01 -4.289761e+01 -7.255836e+01 1.112410e+02 -2.380170e+01 1.252270e+02 NaN 1.470309e-07 -1.398873e-07 0 0 0 1.303228e+01 -4.982279e+01 1.067708e+02 -9.895905e+01 -2.019662e+01 -1.300219e+02 NaN 4.783757e-07 -4.235918e-08 2.748559e-01 -1.010902e+00 4.850799e-03 0 0 NaN 
0 0 0 -4.351456e-01 -2.465249e+00 -1.605158e+01 -2.548410e+00 1.594342e+01 7.002690e-01 7.520410e+00 -1.713823e+01 1.492404e+00 0 1.192002e-08 NaN -9.074450e-01 1.569620e+01 2.455140e-01 5.842863e+00 -1.535440e+01 1.319150e+00 0 0 1.190650e-07 -3.322655e-07 4.726784e-07 -2.100000e-05 0 0 0 2.535881e+01 -3.696182e+01 -4.770384e+01 1.164882e+02 -2.308453e+01 1.330728e+02 NaN NaN NaN 0 0 0 3.474110e+00 -5.204031e+01 9.568654e+01 -1.016116e+02 -1.443620e+01 -1.339846e+02 -7.207447e-08 NaN -6.819426e-08 2.528220e-01 -1.928593e-01 8.512749e-04 0 0 2.380669e-07 
0 0 0 -3.037516e-01 -2.472377e+00 -1.661560e+01 -2.477400e+00 1.625561e+01 6.939110e-01 6.781240e+00 -1.742673e+01 1.321732e+00 0 1.410168e-08 2.682027e-07 -1.488100e+00 1.482799e+01 3.808500e-01 6.350710e+00 -1.429740e+01 1.215890e+00 0 0 5.801261e-07 -1.737993e-07 -4.979545e-07 -2.800000e-05 0 0 0 3.660450e+01 -3.244132e+01 -3.057736e+01 1.135269e+02 -1.781928e+01 1.336003e+02 -1.961350e-08 1.674412e-07 NaN 0 0 0 -1.442223e+01 -5.092714e+01 7.470138e+01 -1.045360e+02 -9.529586e+00 -1.461486e+02 -9.016942e-08 NaN 1.208141e-07 4.417601e-01 -1.541730e-01 1.193000e-03 0 0 NaN 
0 0 0 1.192910e-01 -1.496729e+00 -1.668023e+01 -3.104839e+00 1.504311e+01 8.072297e-01 7.647427e+00 -1.730170e+01 1.384708e+00 0 1.685145e-08 NaN -1.472455e+00 1.314281e+01 3.338217e-01 5.695400e+00 -1.324831e+01 9.798819e-01 0 0 NaN -1.043191e-07 3.289908e-07 2.200816e-05 0 0 0 4.424349e+01 -2.521538e+01 -1.742450e+01 1.072824e+02 -1.410510e+01 1.280151e+02 -2.037790e-07 1.153846e-07 6.181684e-08 0 0 0 -2.976300e+01 -4.615388e+01 5.606410e+01 -1.048840e+02 -3.785388e+00 -1.193094e+02 NaN -5.229596e-08 1.268309e-07 4.319940e-01 2.248010e-01 -1.694565e-03 0 0 NaN 
0 0 0 3.152180e-01 -4.278260e-01 -1.699217e+01 -3.431081e+00 1.364036e+01 8.095614e-01 8.561030e+00 -1.732781e+01 1.560356e+00 0 7.880879e-09 NaN -1.746416e+00 1.159420e+01 3.509095e-01 6.234416e+00 -1.295995e+01 1.016610e+00 0 0 NaN -3.188293e-07 8.548968e-07 -6.586141e-05 0 0 0 4.623546e+01 -1.567024e+01 -7.368475e+00 1.030844e+02 -1.307240e+01 1.215889e+02 NaN NaN 1.358774e-07 0 0 0 -3.696520e+01 -3.741393e+01 4.475620e+01 -1.053635e+02 1.476478e+00 -1.128645e+02 -2.543472e-07 4.774079e-08 5.597757e-07 5.463982e-01 5.549859e-01 -5.294825e-03 0 0 1.474731e-06 
0 0 0 2.787120e-01 -5.758939e-01 -1.731168e+01 -2.969942e+00 1.269500e+01 6.534773e-01 7.669959e+00 -1.572288e+01 1.295610e+00 0 1.177922e-08 -3.418678e-07 -1.840257e+00 1.127693e+01 3.584540e-01 6.775651e+00 -1.307464e+01 1.127921e+00 0 0 2.632502e-07 -3.286638e-07 1.146944e-06 -5.198554e-05 0 0 0 4.610372e+01 -6.956119e+00 1.158370e+00 9.811940e+01 -1.494738e+01 1.092483e+02 NaN -6.023679e-09 NaN 0 0 0 -4.032340e+01 -3.007717e+01 3.737750e+01 -1.043187e+02 4.996326e+00 -1.220304e+02 NaN -8.814722e-08 NaN 3.740270e-01 7.237652e-01 -4.736469e-03 0 0 NaN 
0 0 0 2.947402e-01 9.708048e-02 -1.761182e+01 -2.484013e+00 1.306835e+01 5.619261e-01 7.217720e+00 -1.729167e+01 1.429350e+00 0 1.318986e-08 NaN -1.287989e+00 1.095243e+01 2.448675e-01 6.135050e+00 -1.331033e+01 1.123917e+00 0 0 NaN 1.387508e-06 -5.346149e-06 3.700000e-05 0 0 0 4.429632e+01 -1.429538e-01 8.029153e+00 9.396900e+01 -1.608675e+01 9.953576e+01 -6.630695e-08 -4.434079e-07 9.940956e-08 0 0 0 -3.840717e+01 -2.187450e+01 3.322417e+01 -1.039681e+02 4.419454e+00 -1.253109e+02 NaN -3.029585e-07 NaN 4.148800e-01 7.832784e-01 -5.668797e-03 0 0 NaN 
0 0 0 6.520391e-01 1.371930e+00 -1.733294e+01 -2.260849e+00 1.082956e+01 4.259502e-01 6.982321e+00 -1.596470e+01 1.313220e+00 0 1.442308e-08 NaN -1.059794e+00 9.025978e+00 1.664412e-01 5.849637e+00 -1.252747e+01 1.044120e+00 0 0 NaN NaN NaN -2.487656e-05 0 0 0 4.298737e+01 3.306614e+00 1.189173e+01 9.038219e+01 -1.574164e+01 9.119970e+01 -4.622034e-08 NaN -1.857180e-08 0 0 0 -3.831829e+01 -1.768950e+01 2.951675e+01 -1.035665e+02 4.918244e+00 -1.269341e+02 -5.347281e-08 NaN 1.130549e-07 4.398030e-01 1.299788e+00 -9.978138e-03 0 0 9.776261e-08 
0 0 0 1.042253e+00 1.342900e+00 -1.739248e+01 -2.903039e+00 1.143050e+01 5.753845e-01 7.030670e+00 -1.765292e+01 1.272022e+00 0 5.714286e-09 -7.667588e-08 -1.959107e+00 9.163175e+00 3.106239e-01 6.749651e+00 -1.325950e+01 1.106829e+00 0 0 -1.650130e-07 NaN -3.700000e-05 -7.500000e-05 0 0 0 4.147184e+01 4.301000e+00 1.332535e+01 8.893586e+01 -1.470530e+01 8.737722e+01 -2.963924e-08 NaN 2.130595e-08 0 0 0 -3.793054e+01 -1.624570e+01 2.855595e+01 -1.038400e+02 5.458218e+00 -1.287252e+02 1.440712e-07 NaN -1.128715e-07 5.877768e-01 1.588835e+00 -1.629673e-02 0 0 4.287689e-07 
0 0 0 1.442780e+00 6.218100e-01 -1.732462e+01 -3.818941e+00 1.139601e+01 7.561405e-01 7.314106e+00 -1.644639e+01 1.006410e+00 0 NaN -5.131180e-08 -2.782400e+00 9.519976e+00 4.601360e-01 6.891615e+00 -1.289060e+01 9.267430e-01 0 0 NaN -2.015849e-06 8.023759e-07 3.000000e-06 0 0 0 3.979302e+01 3.945624e+00 1.345537e+01 9.054210e+01 -1.544750e+01 9.173610e+01 -1.303307e-07 1.761765e-07 1.282378e-08 0 0 0 -3.779792e+01 -1.651036e+01 2.896230e+01 -1.037580e+02 5.132817e+00 -1.315863e+02 NaN -5.500053e-08 NaN 4.908090e-01 1.358619e+00 -1.163700e-02 0 0 NaN 
0 0 0 1.693545e+00 9.330260e-01 -1.684742e+01 -4.820444e+00 1.080830e+01 9.055681e-01 8.667762e+00 -1.627830e+01 1.104637e+00 0 1.794720e-08 3.052483e-07 -3.261957e+00 8.976899e+00 5.096863e-01 7.160464e+00 -1.237557e+01 8.447417e-01 0 0 8.604380e-08 0 1.686276e-05 -6.397016e-05 0 0 0 4.051402e+01 1.596564e+00 1.060823e+01 9.149542e+01 -1.391739e+01 9.405346e+01 NaN -1.030664e-07 -6.535886e-08 0 0 0 -3.813007e+01 -1.804050e+01 3.005450e+01 -1.038861e+02 5.060984e+00 -1.328932e+02 NaN 4.912304e-08 9.320577e-08 1.952000e-01 1.505484e+00 -5.135000e-03 0 0 NaN 
0 0 0 1.744100e+00 3.959472e-01 -1.636197e+01 -4.721651e+00 1.058490e+01 8.703296e-01 7.995480e+00 -1.495830e+01 8.670173e-01 0 1.160428e-08 NaN -3.954170e+00 9.527902e+00 6.554490e-01 8.230307e+00 -1.242753e+01 9.338186e-01 0 0 1.810498e-07 0 NaN -6.385533e-05 0 0 0 4.094653e+01 -2.663763e+00 5.678887e+00 9.492863e+01 -1.264562e+01 1.037196e+02 NaN NaN -1.858017e-07 0 0 0 -3.916047e+01 -2.196007e+01 3.235969e+01 -1.042538e+02 2.719955e+00 -1.297157e+02 1.980521e-07 2.221958e-07 -1.033732e-07 1.346490e-01 1.212760e+00 -2.845000e-03 0 0 7.574686e-07 
0 0 0 1.603605e+00 9.658493e-01 -1.618078e+01 -4.264789e+00 1.027370e+01 7.616627e-01 7.769471e+00 -1.580370e+01 9.745190e-01 0 9.384606e-09 NaN -3.337039e+00 9.089739e+00 5.277401e-01 7.484500e+00 -1.291202e+01 9.372354e-01 0 0 1.837533e-07 -8.205408e-08 NaN 1.109879e-04 0 0 0 4.300539e+01 -1.017421e+01 -2.594138e+00 9.931793e+01 -6.439730e+00 1.240368e+02 -7.392580e-07 -4.396176e-08 NaN 0 0 0 -3.728425e+01 -2.946140e+01 3.965614e+01 -1.050917e+02 4.720310e+00 -1.239711e+02 NaN NaN 1.070494e-07 4.982911e-02 9.458886e-01 -8.164743e-04 0 0 4.833835e-07 
0 0 0 1.386180e+00 1.076954e+00 -1.659766e+01 -3.536302e+00 9.896642e+00 6.086841e-01 7.327424e+00 -1.565560e+01 1.038040e+00 0 1.451762e-08 -5.341504e-08 -2.954808e+00 9.238175e+00 4.751791e-01 7.662337e+00 -1.398194e+01 1.147693e+00 0 0 NaN -3.327207e-07 1.637279e-06 1.300000e-05 0 0 0 4.351065e+01 -1.634003e+01 -9.077826e+00 1.064601e+02 -4.532840e+00 1.459520e+02 NaN 6.280065e-08 NaN 0 0 0 -3.271145e+01 -3.894635e+01 5.026681e+01 -1.063479e+02 2.971419e+00 -1.268813e+02 NaN NaN 1.623744e-07 4.083266e-01 9.725081e-01 -6.941876e-03 0 0 NaN 
0 0 0 7.558810e-01 -3.912870e-01 -1.693923e+01 -3.553123e+00 1.240890e+01 7.636184e-01 7.624040e+00 -1.675490e+01 1.200160e+00 0 NaN -1.845617e-07 -2.986390e+00 1.163032e+01 6.035466e-01 7.919213e+00 -1.491954e+01 1.289810e+00 0 0 NaN -1.388388e-07 7.989391e-07 8.200000e-05 0 0 0 4.171768e+01 -2.482590e+01 -1.882270e+01 1.122775e+02 -6.178550e+00 1.509380e+02 NaN 9.863876e-08 -3.165320e-08 0 0 0 -2.290765e+01 -4.687200e+01 6.407296e+01 -1.059846e+02 -1.577109e+00 -1.263875e+02 -4.678363e-08 -4.520057e-08 NaN 2.858470e-01 8.918200e-01 -4.441000e-03 0 0 NaN 
0 0 0 6.247350e-01 -5.761100e-01 -1.763411e+01 -3.023059e+00 1.223390e+01 6.426602e-01 6.716290e+00 -1.508538e+01 9.905834e-01 0 NaN NaN -2.731510e+00 1.169410e+01 5.527270e-01 7.803970e+00 -1.470630e+01 1.305390e+00 0 0 -6.500006e-08 -1.548998e-07 -3.700000e-05 -2.000000e-06 0 0 0 3.801028e+01 -3.168570e+01 -2.861620e+01 1.165595e+02 -1.239270e+01 1.456650e+02 -4.718314e-08 NaN -3.595644e-08 0 0 0 -8.273380e+00 -5.313630e+01 8.217190e+01 -1.033800e+02 -7.668020e+00 -1.273080e+02 -4.590421e-08 4.368404e-08 NaN -2.483539e-02 1.157320e+00 5.140000e-04 0 0 4.192159e-07 
0 0 0 2.556356e-01 -1.058409e+00 -1.603830e+01 -2.462347e+00 1.349330e+01 5.755873e-01 6.847564e+00 -1.680120e+01 1.279392e+00 0 8.869578e-09 NaN -1.892560e+00 1.251146e+01 4.101920e-01 7.114390e+00 -1.520220e+01 1.384627e+00 0 0 5.566965e-09 -2.188055e-06 -1.228190e-05 -5.800000e-05 0 0 0 2.904365e+01 -4.035325e+01 -4.573270e+01 1.172693e+02 -2.053170e+01 1.365880e+02 -8.080962e-08 -8.296631e-08 2.328848e-08 0 0 0 7.683000e+00 -5.436690e+01 1.003253e+02 -1.006013e+02 -1.428610e+01 -1.292585e+02 -8.435376e-08 -3.360914e-08 -2.110293e-07 -1.846260e-01 5.805114e-01 1.860000e-03 0 0 NaN 
0 0 0 -4.685300e-02 -1.634083e+00 -1.561820e+01 -2.580765e+00 1.520210e+01 6.749838e-01 7.455381e+00 -1.845220e+01 1.570199e+00 0 2.102859e-08 3.012200e-09 -1.696316e+00 1.407374e+01 4.125174e-01 7.148920e+00 -1.563326e+01 1.486749e+00 0 0 1.345746e-07 NaN NaN 9.384375e-06 0 0 0 1.712246e+01 -4.425808e+01 -6.414263e+01 1.168061e+02 -2.467048e+01 1.326114e+02 -2.008240e-07 -5.593951e-08 2.839414e-07 0 0 0 1.958976e+01 -5.130490e+01 1.142064e+02 -9.673144e+01 -1.861633e+01 -1.294976e+02 -8.829943e-08 2.296111e-07 -1.075967e-07 -3.086779e-01 -5.400338e-02 -3.032290e-04 0 0 NaN 
